<mxfile host="app.diagrams.net" agent="Mozilla/5.0 (Windows NT 10.0; Win64; x64) AppleWebKit/537.36 (KHTML, like Gecko) Chrome/129.0.0.0 Safari/537.36" version="24.8.0">
  <diagram id="R2lEEEUBdFMjLlhIrx00" name="Page-1">
    <mxGraphModel dx="4325" dy="1353" grid="1" gridSize="10" guides="1" tooltips="1" connect="1" arrows="1" fold="1" page="1" pageScale="1" pageWidth="850" pageHeight="1100" math="0" shadow="0" extFonts="Permanent Marker^https://fonts.googleapis.com/css?family=Permanent+Marker">
      <root>
        <mxCell id="0" />
        <mxCell id="1" parent="0" />
        <mxCell id="NmfJupg0P8XV8mu7NY6x-1" value="Student" style="whiteSpace=wrap;html=1;align=center;" parent="1" vertex="1">
          <mxGeometry x="-570" y="240" width="100" height="40" as="geometry" />
        </mxCell>
        <mxCell id="NmfJupg0P8XV8mu7NY6x-4" value="StudentID" style="ellipse;whiteSpace=wrap;html=1;align=center;fontStyle=4;" parent="1" vertex="1">
          <mxGeometry x="-820" y="210" width="100" height="40" as="geometry" />
        </mxCell>
        <mxCell id="NmfJupg0P8XV8mu7NY6x-5" value="Major" style="ellipse;whiteSpace=wrap;html=1;align=center;" parent="1" vertex="1">
          <mxGeometry x="-250" y="270" width="100" height="40" as="geometry" />
        </mxCell>
        <mxCell id="NmfJupg0P8XV8mu7NY6x-6" value="StPic" style="ellipse;whiteSpace=wrap;html=1;align=center;" parent="1" vertex="1">
          <mxGeometry x="-280" y="220" width="100" height="40" as="geometry" />
        </mxCell>
        <mxCell id="NmfJupg0P8XV8mu7NY6x-7" value="GPA" style="ellipse;whiteSpace=wrap;html=1;align=center;" parent="1" vertex="1">
          <mxGeometry x="-330" y="170" width="100" height="40" as="geometry" />
        </mxCell>
        <mxCell id="NmfJupg0P8XV8mu7NY6x-8" value="StCity" style="ellipse;whiteSpace=wrap;html=1;align=center;" parent="1" vertex="1">
          <mxGeometry x="-390" y="130" width="100" height="40" as="geometry" />
        </mxCell>
        <mxCell id="NmfJupg0P8XV8mu7NY6x-9" value="StPhNum" style="ellipse;whiteSpace=wrap;html=1;align=center;" parent="1" vertex="1">
          <mxGeometry x="-490" y="100" width="100" height="40" as="geometry" />
        </mxCell>
        <mxCell id="NmfJupg0P8XV8mu7NY6x-10" value="StEmail" style="ellipse;whiteSpace=wrap;html=1;align=center;" parent="1" vertex="1">
          <mxGeometry x="-610" y="90" width="100" height="40" as="geometry" />
        </mxCell>
        <mxCell id="NmfJupg0P8XV8mu7NY6x-11" value="StLName" style="ellipse;whiteSpace=wrap;html=1;align=center;" parent="1" vertex="1">
          <mxGeometry x="-720" y="110" width="100" height="40" as="geometry" />
        </mxCell>
        <mxCell id="NmfJupg0P8XV8mu7NY6x-12" value="StFName" style="ellipse;whiteSpace=wrap;html=1;align=center;" parent="1" vertex="1">
          <mxGeometry x="-800" y="150" width="100" height="40" as="geometry" />
        </mxCell>
        <mxCell id="NmfJupg0P8XV8mu7NY6x-13" value="StPassword" style="ellipse;whiteSpace=wrap;html=1;align=center;" parent="1" vertex="1">
          <mxGeometry x="-830" y="270" width="100" height="40" as="geometry" />
        </mxCell>
        <mxCell id="NmfJupg0P8XV8mu7NY6x-14" value="Interest" style="ellipse;whiteSpace=wrap;html=1;align=center;" parent="1" vertex="1">
          <mxGeometry x="-240" y="320" width="100" height="40" as="geometry" />
        </mxCell>
        <mxCell id="NmfJupg0P8XV8mu7NY6x-16" value="" style="endArrow=none;html=1;rounded=0;exitX=1;exitY=0.5;exitDx=0;exitDy=0;entryX=0;entryY=0.75;entryDx=0;entryDy=0;" parent="1" source="NmfJupg0P8XV8mu7NY6x-13" target="NmfJupg0P8XV8mu7NY6x-1" edge="1">
          <mxGeometry width="50" height="50" relative="1" as="geometry">
            <mxPoint x="-420" y="310" as="sourcePoint" />
            <mxPoint x="-370" y="260" as="targetPoint" />
          </mxGeometry>
        </mxCell>
        <mxCell id="NmfJupg0P8XV8mu7NY6x-17" value="" style="endArrow=none;html=1;rounded=0;entryX=0;entryY=0.5;entryDx=0;entryDy=0;exitX=1;exitY=0.75;exitDx=0;exitDy=0;" parent="1" source="NmfJupg0P8XV8mu7NY6x-1" target="NmfJupg0P8XV8mu7NY6x-5" edge="1">
          <mxGeometry width="50" height="50" relative="1" as="geometry">
            <mxPoint x="-420" y="310" as="sourcePoint" />
            <mxPoint x="-370" y="260" as="targetPoint" />
          </mxGeometry>
        </mxCell>
        <mxCell id="NmfJupg0P8XV8mu7NY6x-18" value="" style="endArrow=none;html=1;rounded=0;entryX=0;entryY=0.5;entryDx=0;entryDy=0;exitX=1;exitY=0.5;exitDx=0;exitDy=0;" parent="1" source="NmfJupg0P8XV8mu7NY6x-1" target="NmfJupg0P8XV8mu7NY6x-6" edge="1">
          <mxGeometry width="50" height="50" relative="1" as="geometry">
            <mxPoint x="-420" y="310" as="sourcePoint" />
            <mxPoint x="-370" y="260" as="targetPoint" />
          </mxGeometry>
        </mxCell>
        <mxCell id="NmfJupg0P8XV8mu7NY6x-19" value="" style="endArrow=none;html=1;rounded=0;entryX=0;entryY=0.5;entryDx=0;entryDy=0;exitX=1;exitY=0.25;exitDx=0;exitDy=0;" parent="1" source="NmfJupg0P8XV8mu7NY6x-1" target="NmfJupg0P8XV8mu7NY6x-7" edge="1">
          <mxGeometry width="50" height="50" relative="1" as="geometry">
            <mxPoint x="-420" y="310" as="sourcePoint" />
            <mxPoint x="-370" y="260" as="targetPoint" />
          </mxGeometry>
        </mxCell>
        <mxCell id="NmfJupg0P8XV8mu7NY6x-20" value="" style="endArrow=none;html=1;rounded=0;entryX=0;entryY=0.5;entryDx=0;entryDy=0;exitX=1;exitY=0;exitDx=0;exitDy=0;" parent="1" source="NmfJupg0P8XV8mu7NY6x-1" target="NmfJupg0P8XV8mu7NY6x-8" edge="1">
          <mxGeometry width="50" height="50" relative="1" as="geometry">
            <mxPoint x="-420" y="310" as="sourcePoint" />
            <mxPoint x="-370" y="260" as="targetPoint" />
          </mxGeometry>
        </mxCell>
        <mxCell id="NmfJupg0P8XV8mu7NY6x-21" value="" style="endArrow=none;html=1;rounded=0;entryX=0;entryY=1;entryDx=0;entryDy=0;exitX=0.75;exitY=0;exitDx=0;exitDy=0;" parent="1" source="NmfJupg0P8XV8mu7NY6x-1" target="NmfJupg0P8XV8mu7NY6x-9" edge="1">
          <mxGeometry width="50" height="50" relative="1" as="geometry">
            <mxPoint x="-420" y="310" as="sourcePoint" />
            <mxPoint x="-370" y="260" as="targetPoint" />
          </mxGeometry>
        </mxCell>
        <mxCell id="NmfJupg0P8XV8mu7NY6x-22" value="" style="endArrow=none;html=1;rounded=0;entryX=0.5;entryY=1;entryDx=0;entryDy=0;exitX=0.5;exitY=0;exitDx=0;exitDy=0;" parent="1" source="NmfJupg0P8XV8mu7NY6x-1" target="NmfJupg0P8XV8mu7NY6x-10" edge="1">
          <mxGeometry width="50" height="50" relative="1" as="geometry">
            <mxPoint x="-420" y="310" as="sourcePoint" />
            <mxPoint x="-370" y="260" as="targetPoint" />
          </mxGeometry>
        </mxCell>
        <mxCell id="NmfJupg0P8XV8mu7NY6x-23" value="" style="endArrow=none;html=1;rounded=0;entryX=1;entryY=1;entryDx=0;entryDy=0;exitX=0.25;exitY=0;exitDx=0;exitDy=0;" parent="1" source="NmfJupg0P8XV8mu7NY6x-1" target="NmfJupg0P8XV8mu7NY6x-11" edge="1">
          <mxGeometry width="50" height="50" relative="1" as="geometry">
            <mxPoint x="-420" y="310" as="sourcePoint" />
            <mxPoint x="-370" y="260" as="targetPoint" />
          </mxGeometry>
        </mxCell>
        <mxCell id="NmfJupg0P8XV8mu7NY6x-24" value="" style="endArrow=none;html=1;rounded=0;exitX=0;exitY=0;exitDx=0;exitDy=0;entryX=1;entryY=1;entryDx=0;entryDy=0;" parent="1" source="NmfJupg0P8XV8mu7NY6x-1" target="NmfJupg0P8XV8mu7NY6x-12" edge="1">
          <mxGeometry width="50" height="50" relative="1" as="geometry">
            <mxPoint x="-580" y="220" as="sourcePoint" />
            <mxPoint x="-530" y="170" as="targetPoint" />
          </mxGeometry>
        </mxCell>
        <mxCell id="NmfJupg0P8XV8mu7NY6x-25" value="" style="endArrow=none;html=1;rounded=0;exitX=1;exitY=0.5;exitDx=0;exitDy=0;" parent="1" source="NmfJupg0P8XV8mu7NY6x-4" edge="1">
          <mxGeometry width="50" height="50" relative="1" as="geometry">
            <mxPoint x="-630" y="230" as="sourcePoint" />
            <mxPoint x="-570" y="260" as="targetPoint" />
          </mxGeometry>
        </mxCell>
        <mxCell id="NmfJupg0P8XV8mu7NY6x-26" value="" style="endArrow=none;html=1;rounded=0;entryX=0;entryY=0.5;entryDx=0;entryDy=0;exitX=1;exitY=1;exitDx=0;exitDy=0;" parent="1" source="NmfJupg0P8XV8mu7NY6x-1" target="NmfJupg0P8XV8mu7NY6x-14" edge="1">
          <mxGeometry width="50" height="50" relative="1" as="geometry">
            <mxPoint x="-420" y="310" as="sourcePoint" />
            <mxPoint x="-370" y="260" as="targetPoint" />
          </mxGeometry>
        </mxCell>
        <mxCell id="NmfJupg0P8XV8mu7NY6x-28" value="Certificate" style="whiteSpace=wrap;html=1;align=center;" parent="1" vertex="1">
          <mxGeometry x="110" y="220" width="100" height="40" as="geometry" />
        </mxCell>
        <mxCell id="NmfJupg0P8XV8mu7NY6x-34" value="CerDetails" style="ellipse;whiteSpace=wrap;html=1;align=center;" parent="1" vertex="1">
          <mxGeometry x="200" y="120" width="100" height="40" as="geometry" />
        </mxCell>
        <mxCell id="NmfJupg0P8XV8mu7NY6x-35" value="CerName" style="ellipse;whiteSpace=wrap;html=1;align=center;" parent="1" vertex="1">
          <mxGeometry x="90" y="120" width="100" height="40" as="geometry" />
        </mxCell>
        <mxCell id="NmfJupg0P8XV8mu7NY6x-45" value="" style="endArrow=none;html=1;rounded=0;entryX=0;entryY=1;entryDx=0;entryDy=0;exitX=0.75;exitY=0;exitDx=0;exitDy=0;" parent="1" source="NmfJupg0P8XV8mu7NY6x-28" target="NmfJupg0P8XV8mu7NY6x-34" edge="1">
          <mxGeometry width="50" height="50" relative="1" as="geometry">
            <mxPoint x="260" y="290" as="sourcePoint" />
            <mxPoint x="310" y="240" as="targetPoint" />
          </mxGeometry>
        </mxCell>
        <mxCell id="NmfJupg0P8XV8mu7NY6x-46" value="" style="endArrow=none;html=1;rounded=0;entryX=0.5;entryY=1;entryDx=0;entryDy=0;exitX=0.5;exitY=0;exitDx=0;exitDy=0;" parent="1" source="NmfJupg0P8XV8mu7NY6x-28" target="NmfJupg0P8XV8mu7NY6x-35" edge="1">
          <mxGeometry width="50" height="50" relative="1" as="geometry">
            <mxPoint x="260" y="290" as="sourcePoint" />
            <mxPoint x="310" y="240" as="targetPoint" />
          </mxGeometry>
        </mxCell>
        <mxCell id="NmfJupg0P8XV8mu7NY6x-51" value="Has" style="rhombus;whiteSpace=wrap;html=1;" parent="1" vertex="1">
          <mxGeometry x="-40" y="360" width="80" height="80" as="geometry" />
        </mxCell>
        <mxCell id="NmfJupg0P8XV8mu7NY6x-53" value="" style="endArrow=none;html=1;rounded=0;entryX=0.5;entryY=1;entryDx=0;entryDy=0;exitX=0;exitY=0.5;exitDx=0;exitDy=0;" parent="1" source="NmfJupg0P8XV8mu7NY6x-51" target="NmfJupg0P8XV8mu7NY6x-1" edge="1">
          <mxGeometry width="50" height="50" relative="1" as="geometry">
            <mxPoint x="-20" y="380" as="sourcePoint" />
            <mxPoint x="30" y="330" as="targetPoint" />
            <Array as="points">
              <mxPoint x="-520" y="400" />
            </Array>
          </mxGeometry>
        </mxCell>
        <mxCell id="NmfJupg0P8XV8mu7NY6x-54" value="" style="endArrow=none;html=1;rounded=0;entryX=0.5;entryY=1;entryDx=0;entryDy=0;exitX=1;exitY=0.5;exitDx=0;exitDy=0;" parent="1" source="NmfJupg0P8XV8mu7NY6x-51" target="NmfJupg0P8XV8mu7NY6x-28" edge="1">
          <mxGeometry width="50" height="50" relative="1" as="geometry">
            <mxPoint x="740" y="490" as="sourcePoint" />
            <mxPoint x="260" y="370" as="targetPoint" />
            <Array as="points">
              <mxPoint x="160" y="400" />
            </Array>
          </mxGeometry>
        </mxCell>
        <mxCell id="NmfJupg0P8XV8mu7NY6x-55" value="Project" style="whiteSpace=wrap;html=1;align=center;" parent="1" vertex="1">
          <mxGeometry x="350" y="360" width="100" height="40" as="geometry" />
        </mxCell>
        <mxCell id="NmfJupg0P8XV8mu7NY6x-56" value="ProjDesc" style="ellipse;whiteSpace=wrap;html=1;align=center;" parent="1" vertex="1">
          <mxGeometry x="420" y="270" width="100" height="40" as="geometry" />
        </mxCell>
        <mxCell id="NmfJupg0P8XV8mu7NY6x-57" value="ProjName" style="ellipse;whiteSpace=wrap;html=1;align=center;" parent="1" vertex="1">
          <mxGeometry x="300" y="270" width="100" height="40" as="geometry" />
        </mxCell>
        <mxCell id="NmfJupg0P8XV8mu7NY6x-58" value="" style="endArrow=none;html=1;rounded=0;entryX=0;entryY=1;entryDx=0;entryDy=0;exitX=0.75;exitY=0;exitDx=0;exitDy=0;" parent="1" source="NmfJupg0P8XV8mu7NY6x-55" target="NmfJupg0P8XV8mu7NY6x-56" edge="1">
          <mxGeometry width="50" height="50" relative="1" as="geometry">
            <mxPoint x="515" y="430" as="sourcePoint" />
            <mxPoint x="565" y="380" as="targetPoint" />
          </mxGeometry>
        </mxCell>
        <mxCell id="NmfJupg0P8XV8mu7NY6x-59" value="" style="endArrow=none;html=1;rounded=0;entryX=0.5;entryY=1;entryDx=0;entryDy=0;exitX=0.5;exitY=0;exitDx=0;exitDy=0;" parent="1" source="NmfJupg0P8XV8mu7NY6x-55" target="NmfJupg0P8XV8mu7NY6x-57" edge="1">
          <mxGeometry width="50" height="50" relative="1" as="geometry">
            <mxPoint x="515" y="430" as="sourcePoint" />
            <mxPoint x="565" y="380" as="targetPoint" />
          </mxGeometry>
        </mxCell>
        <mxCell id="NmfJupg0P8XV8mu7NY6x-60" value="Has" style="rhombus;whiteSpace=wrap;html=1;" parent="1" vertex="1">
          <mxGeometry x="-40" y="480" width="80" height="80" as="geometry" />
        </mxCell>
        <mxCell id="NmfJupg0P8XV8mu7NY6x-62" value="" style="endArrow=none;html=1;rounded=0;entryX=0.1;entryY=1.025;entryDx=0;entryDy=0;exitX=0;exitY=0.5;exitDx=0;exitDy=0;entryPerimeter=0;" parent="1" target="NmfJupg0P8XV8mu7NY6x-1" edge="1">
          <mxGeometry width="50" height="50" relative="1" as="geometry">
            <mxPoint x="-40" y="520" as="sourcePoint" />
            <mxPoint x="-520" y="400" as="targetPoint" />
            <Array as="points">
              <mxPoint x="-560" y="520" />
            </Array>
          </mxGeometry>
        </mxCell>
        <mxCell id="NmfJupg0P8XV8mu7NY6x-64" value="" style="endArrow=none;html=1;rounded=0;entryX=0.5;entryY=1;entryDx=0;entryDy=0;exitX=1;exitY=0.5;exitDx=0;exitDy=0;" parent="1" target="NmfJupg0P8XV8mu7NY6x-55" edge="1">
          <mxGeometry width="50" height="50" relative="1" as="geometry">
            <mxPoint x="40" y="520" as="sourcePoint" />
            <mxPoint x="160" y="380" as="targetPoint" />
            <Array as="points">
              <mxPoint x="400" y="520" />
            </Array>
          </mxGeometry>
        </mxCell>
        <mxCell id="NmfJupg0P8XV8mu7NY6x-65" value="Company" style="whiteSpace=wrap;html=1;align=center;" parent="1" vertex="1">
          <mxGeometry x="350" y="730" width="100" height="40" as="geometry" />
        </mxCell>
        <mxCell id="NmfJupg0P8XV8mu7NY6x-66" value="CompName" style="ellipse;whiteSpace=wrap;html=1;align=center;fontStyle=4;" parent="1" vertex="1">
          <mxGeometry x="210" y="600" width="100" height="40" as="geometry" />
        </mxCell>
        <mxCell id="NmfJupg0P8XV8mu7NY6x-68" value="CompIndustry" style="ellipse;whiteSpace=wrap;html=1;align=center;" parent="1" vertex="1">
          <mxGeometry x="650" y="710" width="100" height="40" as="geometry" />
        </mxCell>
        <mxCell id="NmfJupg0P8XV8mu7NY6x-69" value="CompWebsite" style="ellipse;whiteSpace=wrap;html=1;align=center;" parent="1" vertex="1">
          <mxGeometry x="600" y="660" width="100" height="40" as="geometry" />
        </mxCell>
        <mxCell id="NmfJupg0P8XV8mu7NY6x-70" value="CompEmail" style="ellipse;whiteSpace=wrap;html=1;align=center;" parent="1" vertex="1">
          <mxGeometry x="540" y="620" width="100" height="40" as="geometry" />
        </mxCell>
        <mxCell id="NmfJupg0P8XV8mu7NY6x-71" value="CompNum" style="ellipse;whiteSpace=wrap;html=1;align=center;" parent="1" vertex="1">
          <mxGeometry x="440" y="590" width="100" height="40" as="geometry" />
        </mxCell>
        <mxCell id="NmfJupg0P8XV8mu7NY6x-72" value="CompCity" style="ellipse;whiteSpace=wrap;html=1;align=center;" parent="1" vertex="1">
          <mxGeometry x="320" y="580" width="100" height="40" as="geometry" />
        </mxCell>
        <mxCell id="NmfJupg0P8XV8mu7NY6x-74" value="CompPic" style="ellipse;whiteSpace=wrap;html=1;align=center;" parent="1" vertex="1">
          <mxGeometry x="130" y="640" width="100" height="40" as="geometry" />
        </mxCell>
        <mxCell id="NmfJupg0P8XV8mu7NY6x-75" value="CompPass" style="ellipse;whiteSpace=wrap;html=1;align=center;" parent="1" vertex="1">
          <mxGeometry x="110" y="700" width="100" height="40" as="geometry" />
        </mxCell>
        <mxCell id="NmfJupg0P8XV8mu7NY6x-77" value="" style="endArrow=none;html=1;rounded=0;exitX=1;exitY=0.5;exitDx=0;exitDy=0;entryX=0;entryY=0.75;entryDx=0;entryDy=0;" parent="1" source="NmfJupg0P8XV8mu7NY6x-75" target="NmfJupg0P8XV8mu7NY6x-65" edge="1">
          <mxGeometry width="50" height="50" relative="1" as="geometry">
            <mxPoint x="510" y="800" as="sourcePoint" />
            <mxPoint x="560" y="750" as="targetPoint" />
          </mxGeometry>
        </mxCell>
        <mxCell id="NmfJupg0P8XV8mu7NY6x-79" value="" style="endArrow=none;html=1;rounded=0;entryX=0;entryY=0.5;entryDx=0;entryDy=0;exitX=1;exitY=0.5;exitDx=0;exitDy=0;" parent="1" source="NmfJupg0P8XV8mu7NY6x-65" target="NmfJupg0P8XV8mu7NY6x-68" edge="1">
          <mxGeometry width="50" height="50" relative="1" as="geometry">
            <mxPoint x="510" y="800" as="sourcePoint" />
            <mxPoint x="560" y="750" as="targetPoint" />
          </mxGeometry>
        </mxCell>
        <mxCell id="NmfJupg0P8XV8mu7NY6x-80" value="" style="endArrow=none;html=1;rounded=0;entryX=0;entryY=0.5;entryDx=0;entryDy=0;exitX=1;exitY=0.25;exitDx=0;exitDy=0;" parent="1" source="NmfJupg0P8XV8mu7NY6x-65" target="NmfJupg0P8XV8mu7NY6x-69" edge="1">
          <mxGeometry width="50" height="50" relative="1" as="geometry">
            <mxPoint x="510" y="800" as="sourcePoint" />
            <mxPoint x="560" y="750" as="targetPoint" />
          </mxGeometry>
        </mxCell>
        <mxCell id="NmfJupg0P8XV8mu7NY6x-81" value="" style="endArrow=none;html=1;rounded=0;entryX=0;entryY=0.5;entryDx=0;entryDy=0;exitX=1;exitY=0;exitDx=0;exitDy=0;" parent="1" source="NmfJupg0P8XV8mu7NY6x-65" target="NmfJupg0P8XV8mu7NY6x-70" edge="1">
          <mxGeometry width="50" height="50" relative="1" as="geometry">
            <mxPoint x="510" y="800" as="sourcePoint" />
            <mxPoint x="560" y="750" as="targetPoint" />
          </mxGeometry>
        </mxCell>
        <mxCell id="NmfJupg0P8XV8mu7NY6x-82" value="" style="endArrow=none;html=1;rounded=0;entryX=0;entryY=1;entryDx=0;entryDy=0;exitX=0.75;exitY=0;exitDx=0;exitDy=0;" parent="1" source="NmfJupg0P8XV8mu7NY6x-65" target="NmfJupg0P8XV8mu7NY6x-71" edge="1">
          <mxGeometry width="50" height="50" relative="1" as="geometry">
            <mxPoint x="510" y="800" as="sourcePoint" />
            <mxPoint x="560" y="750" as="targetPoint" />
          </mxGeometry>
        </mxCell>
        <mxCell id="NmfJupg0P8XV8mu7NY6x-83" value="" style="endArrow=none;html=1;rounded=0;entryX=0.5;entryY=1;entryDx=0;entryDy=0;exitX=0.5;exitY=0;exitDx=0;exitDy=0;" parent="1" source="NmfJupg0P8XV8mu7NY6x-65" target="NmfJupg0P8XV8mu7NY6x-72" edge="1">
          <mxGeometry width="50" height="50" relative="1" as="geometry">
            <mxPoint x="510" y="800" as="sourcePoint" />
            <mxPoint x="560" y="750" as="targetPoint" />
          </mxGeometry>
        </mxCell>
        <mxCell id="NmfJupg0P8XV8mu7NY6x-84" value="" style="endArrow=none;html=1;rounded=0;entryX=1;entryY=1;entryDx=0;entryDy=0;exitX=0.25;exitY=0;exitDx=0;exitDy=0;" parent="1" source="NmfJupg0P8XV8mu7NY6x-65" edge="1">
          <mxGeometry width="50" height="50" relative="1" as="geometry">
            <mxPoint x="510" y="800" as="sourcePoint" />
            <mxPoint x="295.1857720016137" y="634.2096386929595" as="targetPoint" />
          </mxGeometry>
        </mxCell>
        <mxCell id="NmfJupg0P8XV8mu7NY6x-85" value="" style="endArrow=none;html=1;rounded=0;exitX=0;exitY=0;exitDx=0;exitDy=0;entryX=1;entryY=1;entryDx=0;entryDy=0;" parent="1" source="NmfJupg0P8XV8mu7NY6x-65" target="NmfJupg0P8XV8mu7NY6x-74" edge="1">
          <mxGeometry width="50" height="50" relative="1" as="geometry">
            <mxPoint x="350" y="710" as="sourcePoint" />
            <mxPoint x="400" y="660" as="targetPoint" />
          </mxGeometry>
        </mxCell>
        <mxCell id="uRlwzGUHbbHWgA5cBIWR-28" style="edgeStyle=orthogonalEdgeStyle;shape=connector;curved=0;rounded=0;orthogonalLoop=1;jettySize=auto;html=1;entryX=1;entryY=0;entryDx=0;entryDy=0;strokeColor=default;align=center;verticalAlign=middle;fontFamily=Helvetica;fontSize=11;fontColor=default;labelBackgroundColor=default;endArrow=none;endFill=0;exitX=0.25;exitY=1;exitDx=0;exitDy=0;" parent="1" source="NmfJupg0P8XV8mu7NY6x-93" edge="1">
          <mxGeometry relative="1" as="geometry">
            <mxPoint x="-310" y="750" as="sourcePoint" />
            <mxPoint x="-530" y="940" as="targetPoint" />
            <Array as="points">
              <mxPoint x="-320" y="835" />
              <mxPoint x="-440" y="835" />
              <mxPoint x="-440" y="940" />
            </Array>
          </mxGeometry>
        </mxCell>
        <mxCell id="uRlwzGUHbbHWgA5cBIWR-66" style="edgeStyle=orthogonalEdgeStyle;shape=connector;curved=0;rounded=0;orthogonalLoop=1;jettySize=auto;html=1;exitX=1;exitY=0.5;exitDx=0;exitDy=0;strokeColor=default;align=center;verticalAlign=middle;fontFamily=Helvetica;fontSize=11;fontColor=default;labelBackgroundColor=default;endArrow=none;endFill=0;" parent="1" source="NmfJupg0P8XV8mu7NY6x-93" edge="1">
          <mxGeometry relative="1" as="geometry">
            <mxPoint x="-180" y="719.8" as="targetPoint" />
          </mxGeometry>
        </mxCell>
        <mxCell id="NmfJupg0P8XV8mu7NY6x-93" value="Opportunity" style="whiteSpace=wrap;html=1;align=center;" parent="1" vertex="1">
          <mxGeometry x="-345" y="700" width="100" height="40" as="geometry" />
        </mxCell>
        <mxCell id="NmfJupg0P8XV8mu7NY6x-94" value="OppCity" style="ellipse;whiteSpace=wrap;html=1;align=center;" parent="1" vertex="1">
          <mxGeometry x="-370" y="590" width="100" height="40" as="geometry" />
        </mxCell>
        <mxCell id="NmfJupg0P8XV8mu7NY6x-95" value="OppDuration" style="ellipse;whiteSpace=wrap;html=1;align=center;" parent="1" vertex="1">
          <mxGeometry x="-480" y="600" width="100" height="40" as="geometry" />
        </mxCell>
        <mxCell id="NmfJupg0P8XV8mu7NY6x-96" value="" style="endArrow=none;html=1;rounded=0;entryX=0.5;entryY=1;entryDx=0;entryDy=0;exitX=0.25;exitY=0;exitDx=0;exitDy=0;" parent="1" edge="1">
          <mxGeometry width="50" height="50" relative="1" as="geometry">
            <mxPoint x="-320.45" y="700" as="sourcePoint" />
            <mxPoint x="-320.45" y="630" as="targetPoint" />
          </mxGeometry>
        </mxCell>
        <mxCell id="NmfJupg0P8XV8mu7NY6x-97" value="" style="endArrow=none;html=1;rounded=0;entryX=0.5;entryY=1;entryDx=0;entryDy=0;exitX=0;exitY=0;exitDx=0;exitDy=0;" parent="1" source="NmfJupg0P8XV8mu7NY6x-93" target="NmfJupg0P8XV8mu7NY6x-95" edge="1">
          <mxGeometry width="50" height="50" relative="1" as="geometry">
            <mxPoint x="-180" y="770" as="sourcePoint" />
            <mxPoint x="-350" y="640" as="targetPoint" />
          </mxGeometry>
        </mxCell>
        <mxCell id="NmfJupg0P8XV8mu7NY6x-103" value="OppJobTitle" style="ellipse;whiteSpace=wrap;html=1;align=center;" parent="1" vertex="1">
          <mxGeometry x="-245" y="600" width="100" height="40" as="geometry" />
        </mxCell>
        <mxCell id="NmfJupg0P8XV8mu7NY6x-104" value="" style="endArrow=none;html=1;rounded=0;entryX=0;entryY=1;entryDx=0;entryDy=0;exitX=0.25;exitY=0;exitDx=0;exitDy=0;" parent="1" target="NmfJupg0P8XV8mu7NY6x-103" edge="1">
          <mxGeometry width="50" height="50" relative="1" as="geometry">
            <mxPoint x="-290" y="700" as="sourcePoint" />
            <mxPoint x="-290" y="630" as="targetPoint" />
          </mxGeometry>
        </mxCell>
        <mxCell id="NmfJupg0P8XV8mu7NY6x-105" value="OppJobDesc" style="ellipse;whiteSpace=wrap;html=1;align=center;" parent="1" vertex="1">
          <mxGeometry x="-180" y="640" width="100" height="40" as="geometry" />
        </mxCell>
        <mxCell id="NmfJupg0P8XV8mu7NY6x-106" value="" style="endArrow=none;html=1;rounded=0;entryX=0;entryY=0.5;entryDx=0;entryDy=0;exitX=1;exitY=0;exitDx=0;exitDy=0;" parent="1" source="NmfJupg0P8XV8mu7NY6x-93" target="NmfJupg0P8XV8mu7NY6x-105" edge="1">
          <mxGeometry width="50" height="50" relative="1" as="geometry">
            <mxPoint x="-280" y="710" as="sourcePoint" />
            <mxPoint x="-220" y="644" as="targetPoint" />
          </mxGeometry>
        </mxCell>
        <mxCell id="NmfJupg0P8XV8mu7NY6x-107" value="Apply" style="rhombus;whiteSpace=wrap;html=1;" parent="1" vertex="1">
          <mxGeometry x="-720" y="680" width="80" height="80" as="geometry" />
        </mxCell>
        <mxCell id="NmfJupg0P8XV8mu7NY6x-109" value="" style="endArrow=none;html=1;rounded=0;exitX=0.5;exitY=0;exitDx=0;exitDy=0;" parent="1" source="NmfJupg0P8XV8mu7NY6x-107" edge="1">
          <mxGeometry width="50" height="50" relative="1" as="geometry">
            <mxPoint x="60" y="610" as="sourcePoint" />
            <mxPoint x="-554" y="280" as="targetPoint" />
            <Array as="points">
              <mxPoint x="-680" y="400" />
              <mxPoint x="-554" y="400" />
            </Array>
          </mxGeometry>
        </mxCell>
        <mxCell id="NmfJupg0P8XV8mu7NY6x-111" value="" style="endArrow=none;html=1;rounded=0;exitX=1;exitY=0.5;exitDx=0;exitDy=0;entryX=0;entryY=0.5;entryDx=0;entryDy=0;" parent="1" source="NmfJupg0P8XV8mu7NY6x-107" target="NmfJupg0P8XV8mu7NY6x-93" edge="1">
          <mxGeometry width="50" height="50" relative="1" as="geometry">
            <mxPoint x="60" y="610" as="sourcePoint" />
            <mxPoint x="110" y="560" as="targetPoint" />
          </mxGeometry>
        </mxCell>
        <mxCell id="NmfJupg0P8XV8mu7NY6x-113" value="In" style="rhombus;whiteSpace=wrap;html=1;" parent="1" vertex="1">
          <mxGeometry x="-280" y="800" width="80" height="80" as="geometry" />
        </mxCell>
        <mxCell id="NmfJupg0P8XV8mu7NY6x-115" value="" style="endArrow=none;html=1;rounded=0;entryX=0.25;entryY=1;entryDx=0;entryDy=0;exitX=0;exitY=0.5;exitDx=0;exitDy=0;" parent="1" source="NmfJupg0P8XV8mu7NY6x-113" target="NmfJupg0P8XV8mu7NY6x-1" edge="1">
          <mxGeometry width="50" height="50" relative="1" as="geometry">
            <mxPoint x="-545" y="840" as="sourcePoint" />
            <mxPoint x="-50" y="570" as="targetPoint" />
            <Array as="points">
              <mxPoint x="-545" y="840" />
            </Array>
          </mxGeometry>
        </mxCell>
        <mxCell id="NmfJupg0P8XV8mu7NY6x-116" value="" style="endArrow=none;html=1;rounded=0;exitX=1;exitY=0.5;exitDx=0;exitDy=0;entryX=0.5;entryY=1;entryDx=0;entryDy=0;" parent="1" source="NmfJupg0P8XV8mu7NY6x-113" target="NmfJupg0P8XV8mu7NY6x-65" edge="1">
          <mxGeometry width="50" height="50" relative="1" as="geometry">
            <mxPoint x="-50" y="660" as="sourcePoint" />
            <mxPoint y="610" as="targetPoint" />
            <Array as="points">
              <mxPoint x="400" y="840" />
            </Array>
          </mxGeometry>
        </mxCell>
        <mxCell id="uRlwzGUHbbHWgA5cBIWR-43" style="edgeStyle=orthogonalEdgeStyle;shape=connector;curved=0;rounded=0;orthogonalLoop=1;jettySize=auto;html=1;exitX=0;exitY=0.5;exitDx=0;exitDy=0;entryX=1;entryY=0.5;entryDx=0;entryDy=0;strokeColor=default;align=center;verticalAlign=middle;fontFamily=Helvetica;fontSize=11;fontColor=default;labelBackgroundColor=default;endArrow=none;endFill=0;" parent="1" source="NmfJupg0P8XV8mu7NY6x-117" target="uRlwzGUHbbHWgA5cBIWR-42" edge="1">
          <mxGeometry relative="1" as="geometry" />
        </mxCell>
        <mxCell id="NmfJupg0P8XV8mu7NY6x-117" value="Faculty" style="whiteSpace=wrap;html=1;align=center;" parent="1" vertex="1">
          <mxGeometry x="-610" y="1080" width="100" height="40" as="geometry" />
        </mxCell>
        <mxCell id="NmfJupg0P8XV8mu7NY6x-118" value="FacFName" style="ellipse;whiteSpace=wrap;html=1;align=center;" parent="1" vertex="1">
          <mxGeometry x="-615" y="1200" width="100" height="40" as="geometry" />
        </mxCell>
        <mxCell id="NmfJupg0P8XV8mu7NY6x-122" value="FacID" style="ellipse;whiteSpace=wrap;html=1;align=center;fontStyle=4;" parent="1" vertex="1">
          <mxGeometry x="-735" y="1180" width="100" height="40" as="geometry" />
        </mxCell>
        <mxCell id="NmfJupg0P8XV8mu7NY6x-123" value="FacLName" style="ellipse;whiteSpace=wrap;html=1;align=center;" parent="1" vertex="1">
          <mxGeometry x="-505" y="1180" width="100" height="40" as="geometry" />
        </mxCell>
        <mxCell id="NmfJupg0P8XV8mu7NY6x-125" value="FacPass" style="ellipse;whiteSpace=wrap;html=1;align=center;" parent="1" vertex="1">
          <mxGeometry x="-805" y="1140" width="100" height="40" as="geometry" />
        </mxCell>
        <mxCell id="NmfJupg0P8XV8mu7NY6x-126" value="FacEmail" style="ellipse;whiteSpace=wrap;html=1;align=center;" parent="1" vertex="1">
          <mxGeometry x="-415" y="1150" width="100" height="40" as="geometry" />
        </mxCell>
        <mxCell id="NmfJupg0P8XV8mu7NY6x-127" value="" style="endArrow=none;html=1;rounded=0;exitX=1;exitY=0;exitDx=0;exitDy=0;entryX=0;entryY=0.5;entryDx=0;entryDy=0;" parent="1" source="NmfJupg0P8XV8mu7NY6x-125" target="NmfJupg0P8XV8mu7NY6x-117" edge="1">
          <mxGeometry width="50" height="50" relative="1" as="geometry">
            <mxPoint x="-345" y="1120" as="sourcePoint" />
            <mxPoint x="-295" y="1070" as="targetPoint" />
          </mxGeometry>
        </mxCell>
        <mxCell id="NmfJupg0P8XV8mu7NY6x-128" value="" style="endArrow=none;html=1;rounded=0;exitX=0.5;exitY=0;exitDx=0;exitDy=0;entryX=0;entryY=1;entryDx=0;entryDy=0;" parent="1" source="NmfJupg0P8XV8mu7NY6x-122" target="NmfJupg0P8XV8mu7NY6x-117" edge="1">
          <mxGeometry width="50" height="50" relative="1" as="geometry">
            <mxPoint x="-710" y="1156" as="sourcePoint" />
            <mxPoint x="-605" y="1110" as="targetPoint" />
          </mxGeometry>
        </mxCell>
        <mxCell id="NmfJupg0P8XV8mu7NY6x-129" value="" style="endArrow=none;html=1;rounded=0;exitX=0.5;exitY=0;exitDx=0;exitDy=0;entryX=0.25;entryY=1;entryDx=0;entryDy=0;" parent="1" source="NmfJupg0P8XV8mu7NY6x-118" target="NmfJupg0P8XV8mu7NY6x-117" edge="1">
          <mxGeometry width="50" height="50" relative="1" as="geometry">
            <mxPoint x="-345" y="1120" as="sourcePoint" />
            <mxPoint x="-295" y="1070" as="targetPoint" />
          </mxGeometry>
        </mxCell>
        <mxCell id="NmfJupg0P8XV8mu7NY6x-130" value="" style="endArrow=none;html=1;rounded=0;exitX=0;exitY=0;exitDx=0;exitDy=0;entryX=0.5;entryY=1;entryDx=0;entryDy=0;" parent="1" source="NmfJupg0P8XV8mu7NY6x-123" target="NmfJupg0P8XV8mu7NY6x-117" edge="1">
          <mxGeometry width="50" height="50" relative="1" as="geometry">
            <mxPoint x="-345" y="1120" as="sourcePoint" />
            <mxPoint x="-295" y="1070" as="targetPoint" />
          </mxGeometry>
        </mxCell>
        <mxCell id="NmfJupg0P8XV8mu7NY6x-131" value="" style="endArrow=none;html=1;rounded=0;exitX=0;exitY=0;exitDx=0;exitDy=0;entryX=1;entryY=0.75;entryDx=0;entryDy=0;" parent="1" source="NmfJupg0P8XV8mu7NY6x-126" target="NmfJupg0P8XV8mu7NY6x-117" edge="1">
          <mxGeometry width="50" height="50" relative="1" as="geometry">
            <mxPoint x="-345" y="1120" as="sourcePoint" />
            <mxPoint x="-295" y="1070" as="targetPoint" />
          </mxGeometry>
        </mxCell>
        <mxCell id="uRlwzGUHbbHWgA5cBIWR-26" style="edgeStyle=orthogonalEdgeStyle;shape=connector;curved=0;rounded=0;orthogonalLoop=1;jettySize=auto;html=1;exitX=1;exitY=0.5;exitDx=0;exitDy=0;entryX=0;entryY=0.5;entryDx=0;entryDy=0;strokeColor=default;align=center;verticalAlign=middle;fontFamily=Helvetica;fontSize=11;fontColor=default;labelBackgroundColor=default;endArrow=none;endFill=0;" parent="1" source="NmfJupg0P8XV8mu7NY6x-133" target="18eJAe48b1krm5ogqkCA-1" edge="1">
          <mxGeometry relative="1" as="geometry">
            <Array as="points">
              <mxPoint x="270" y="950" />
              <mxPoint x="270" y="1100" />
            </Array>
          </mxGeometry>
        </mxCell>
        <mxCell id="NmfJupg0P8XV8mu7NY6x-133" value="Assigned" style="rhombus;whiteSpace=wrap;html=1;" parent="1" vertex="1">
          <mxGeometry x="-600" y="910" width="80" height="80" as="geometry" />
        </mxCell>
        <mxCell id="NmfJupg0P8XV8mu7NY6x-134" value="" style="endArrow=none;html=1;rounded=0;exitX=0.5;exitY=0;exitDx=0;exitDy=0;entryX=0.5;entryY=1;entryDx=0;entryDy=0;" parent="1" source="NmfJupg0P8XV8mu7NY6x-117" target="NmfJupg0P8XV8mu7NY6x-133" edge="1">
          <mxGeometry width="50" height="50" relative="1" as="geometry">
            <mxPoint x="-250" y="940" as="sourcePoint" />
            <mxPoint x="-200" y="890" as="targetPoint" />
          </mxGeometry>
        </mxCell>
        <mxCell id="NmfJupg0P8XV8mu7NY6x-135" value="" style="endArrow=none;html=1;rounded=0;exitX=0.5;exitY=0;exitDx=0;exitDy=0;" parent="1" source="NmfJupg0P8XV8mu7NY6x-133" edge="1">
          <mxGeometry width="50" height="50" relative="1" as="geometry">
            <mxPoint x="-70" y="620" as="sourcePoint" />
            <mxPoint x="-560" y="280" as="targetPoint" />
          </mxGeometry>
        </mxCell>
        <mxCell id="NmfJupg0P8XV8mu7NY6x-136" value="1" style="text;html=1;align=center;verticalAlign=middle;resizable=0;points=[];autosize=1;strokeColor=none;fillColor=none;" parent="1" vertex="1">
          <mxGeometry x="-705" y="660" width="30" height="30" as="geometry" />
        </mxCell>
        <mxCell id="NmfJupg0P8XV8mu7NY6x-138" value="m" style="text;html=1;align=center;verticalAlign=middle;resizable=0;points=[];autosize=1;strokeColor=none;fillColor=none;" parent="1" vertex="1">
          <mxGeometry x="-650" y="690" width="30" height="30" as="geometry" />
        </mxCell>
        <mxCell id="NmfJupg0P8XV8mu7NY6x-139" value="Offer" style="rhombus;whiteSpace=wrap;html=1;" parent="1" vertex="1">
          <mxGeometry x="-40" y="730" width="80" height="80" as="geometry" />
        </mxCell>
        <mxCell id="NmfJupg0P8XV8mu7NY6x-141" value="" style="endArrow=none;html=1;rounded=0;exitX=1;exitY=0.5;exitDx=0;exitDy=0;entryX=0.25;entryY=1;entryDx=0;entryDy=0;" parent="1" source="NmfJupg0P8XV8mu7NY6x-139" target="NmfJupg0P8XV8mu7NY6x-65" edge="1">
          <mxGeometry width="50" height="50" relative="1" as="geometry">
            <mxPoint x="-210" y="790" as="sourcePoint" />
            <mxPoint x="350" y="770" as="targetPoint" />
            <Array as="points">
              <mxPoint x="130" y="770" />
              <mxPoint x="130" y="800" />
              <mxPoint x="200" y="800" />
              <mxPoint x="375" y="800" />
            </Array>
          </mxGeometry>
        </mxCell>
        <mxCell id="NmfJupg0P8XV8mu7NY6x-142" value="" style="endArrow=none;html=1;rounded=0;entryX=0;entryY=0.5;entryDx=0;entryDy=0;exitX=0.5;exitY=1;exitDx=0;exitDy=0;" parent="1" source="NmfJupg0P8XV8mu7NY6x-93" target="NmfJupg0P8XV8mu7NY6x-139" edge="1">
          <mxGeometry width="50" height="50" relative="1" as="geometry">
            <mxPoint x="-300" y="770" as="sourcePoint" />
            <mxPoint x="-90" y="710" as="targetPoint" />
            <Array as="points">
              <mxPoint x="-295" y="770" />
            </Array>
          </mxGeometry>
        </mxCell>
        <mxCell id="NmfJupg0P8XV8mu7NY6x-143" value="m" style="text;html=1;align=center;verticalAlign=middle;resizable=0;points=[];autosize=1;strokeColor=none;fillColor=none;" parent="1" vertex="1">
          <mxGeometry x="-60" y="740" width="30" height="30" as="geometry" />
        </mxCell>
        <mxCell id="NmfJupg0P8XV8mu7NY6x-144" value="1" style="text;html=1;align=center;verticalAlign=middle;resizable=0;points=[];autosize=1;strokeColor=none;fillColor=none;" parent="1" vertex="1">
          <mxGeometry x="40" y="740" width="30" height="30" as="geometry" />
        </mxCell>
        <mxCell id="NmfJupg0P8XV8mu7NY6x-145" value="m" style="text;html=1;align=center;verticalAlign=middle;resizable=0;points=[];autosize=1;strokeColor=none;fillColor=none;" parent="1" vertex="1">
          <mxGeometry x="-310" y="810" width="30" height="30" as="geometry" />
        </mxCell>
        <mxCell id="NmfJupg0P8XV8mu7NY6x-147" value="1" style="text;html=1;align=center;verticalAlign=middle;resizable=0;points=[];autosize=1;strokeColor=none;fillColor=none;" parent="1" vertex="1">
          <mxGeometry x="-205" y="810" width="30" height="30" as="geometry" />
        </mxCell>
        <mxCell id="NmfJupg0P8XV8mu7NY6x-150" value="m" style="text;html=1;align=center;verticalAlign=middle;resizable=0;points=[];autosize=1;strokeColor=none;fillColor=none;" parent="1" vertex="1">
          <mxGeometry x="-560" y="880" width="30" height="30" as="geometry" />
        </mxCell>
        <mxCell id="NmfJupg0P8XV8mu7NY6x-152" value="1" style="text;html=1;align=center;verticalAlign=middle;resizable=0;points=[];autosize=1;strokeColor=none;fillColor=none;" parent="1" vertex="1">
          <mxGeometry x="-560" y="980" width="30" height="30" as="geometry" />
        </mxCell>
        <mxCell id="NmfJupg0P8XV8mu7NY6x-153" value="1" style="text;html=1;align=center;verticalAlign=middle;resizable=0;points=[];autosize=1;strokeColor=none;fillColor=none;" parent="1" vertex="1">
          <mxGeometry x="-60" y="370" width="30" height="30" as="geometry" />
        </mxCell>
        <mxCell id="NmfJupg0P8XV8mu7NY6x-154" value="m" style="text;html=1;align=center;verticalAlign=middle;resizable=0;points=[];autosize=1;strokeColor=none;fillColor=none;" parent="1" vertex="1">
          <mxGeometry x="30" y="365" width="30" height="30" as="geometry" />
        </mxCell>
        <mxCell id="NmfJupg0P8XV8mu7NY6x-156" value="m" style="text;html=1;align=center;verticalAlign=middle;resizable=0;points=[];autosize=1;strokeColor=none;fillColor=none;" parent="1" vertex="1">
          <mxGeometry x="30" y="480" width="30" height="30" as="geometry" />
        </mxCell>
        <mxCell id="NmfJupg0P8XV8mu7NY6x-157" value="1" style="text;html=1;align=center;verticalAlign=middle;resizable=0;points=[];autosize=1;strokeColor=none;fillColor=none;" parent="1" vertex="1">
          <mxGeometry x="-60" y="480" width="30" height="30" as="geometry" />
        </mxCell>
        <mxCell id="1LA3e58lkjp87awg-dF5-1" value="Experirence" style="whiteSpace=wrap;html=1;align=center;" parent="1" vertex="1">
          <mxGeometry x="-35" y="1080" width="100" height="40" as="geometry" />
        </mxCell>
        <mxCell id="1LA3e58lkjp87awg-dF5-2" value="ExpPosition" style="ellipse;whiteSpace=wrap;html=1;align=center;" parent="1" vertex="1">
          <mxGeometry x="130" y="1030" width="100" height="40" as="geometry" />
        </mxCell>
        <mxCell id="1LA3e58lkjp87awg-dF5-3" value="ExpCompName" style="ellipse;whiteSpace=wrap;html=1;align=center;" parent="1" vertex="1">
          <mxGeometry x="140" y="1090" width="100" height="40" as="geometry" />
        </mxCell>
        <mxCell id="1LA3e58lkjp87awg-dF5-6" value="" style="endArrow=none;html=1;rounded=0;entryX=0;entryY=0.5;entryDx=0;entryDy=0;exitX=1;exitY=0.5;exitDx=0;exitDy=0;" parent="1" source="1LA3e58lkjp87awg-dF5-1" target="1LA3e58lkjp87awg-dF5-3" edge="1">
          <mxGeometry width="50" height="50" relative="1" as="geometry">
            <mxPoint x="50" y="1090" as="sourcePoint" />
            <mxPoint x="155" y="1064" as="targetPoint" />
          </mxGeometry>
        </mxCell>
        <mxCell id="1LA3e58lkjp87awg-dF5-7" value="EndDate" style="ellipse;whiteSpace=wrap;html=1;align=center;" parent="1" vertex="1">
          <mxGeometry x="-10" y="1180" width="100" height="40" as="geometry" />
        </mxCell>
        <mxCell id="1LA3e58lkjp87awg-dF5-8" value="Sta&lt;span style=&quot;color: rgba(0, 0, 0, 0); font-family: monospace; font-size: 0px; text-align: start; text-wrap: nowrap;&quot;&gt;%3CmxGraphModel%3E%3Croot%3E%3CmxCell%20id%3D%220%22%2F%3E%3CmxCell%20id%3D%221%22%20parent%3D%220%22%2F%3E%3CmxCell%20id%3D%222%22%20value%3D%22ExpCompName%22%20style%3D%22ellipse%3BwhiteSpace%3Dwrap%3Bhtml%3D1%3Balign%3Dcenter%3B%22%20vertex%3D%221%22%20parent%3D%221%22%3E%3CmxGeometry%20x%3D%22140%22%20y%3D%221090%22%20width%3D%22100%22%20height%3D%2240%22%20as%3D%22geometry%22%2F%3E%3C%2FmxCell%3E%3C%2Froot%3E%3C%2FmxGraphModel%3E&lt;/span&gt;rtDate" style="ellipse;whiteSpace=wrap;html=1;align=center;" parent="1" vertex="1">
          <mxGeometry x="100" y="1160" width="100" height="40" as="geometry" />
        </mxCell>
        <mxCell id="1LA3e58lkjp87awg-dF5-9" value="" style="endArrow=none;html=1;rounded=0;exitX=0.75;exitY=1;exitDx=0;exitDy=0;entryX=0;entryY=0;entryDx=0;entryDy=0;" parent="1" source="1LA3e58lkjp87awg-dF5-1" target="1LA3e58lkjp87awg-dF5-8" edge="1">
          <mxGeometry width="50" height="50" relative="1" as="geometry">
            <mxPoint x="90" y="1040" as="sourcePoint" />
            <mxPoint x="140" y="990" as="targetPoint" />
          </mxGeometry>
        </mxCell>
        <mxCell id="1LA3e58lkjp87awg-dF5-11" value="" style="endArrow=none;html=1;rounded=0;entryX=0.5;entryY=1;entryDx=0;entryDy=0;exitX=0.5;exitY=0;exitDx=0;exitDy=0;" parent="1" source="1LA3e58lkjp87awg-dF5-7" target="1LA3e58lkjp87awg-dF5-1" edge="1">
          <mxGeometry width="50" height="50" relative="1" as="geometry">
            <mxPoint x="90" y="1040" as="sourcePoint" />
            <mxPoint x="140" y="990" as="targetPoint" />
          </mxGeometry>
        </mxCell>
        <mxCell id="1LA3e58lkjp87awg-dF5-12" value="CurrentlyWorking" style="ellipse;whiteSpace=wrap;html=1;align=center;" parent="1" vertex="1">
          <mxGeometry x="-120" y="1160" width="100" height="40" as="geometry" />
        </mxCell>
        <mxCell id="1LA3e58lkjp87awg-dF5-13" value="" style="endArrow=none;html=1;rounded=0;entryX=0.25;entryY=1;entryDx=0;entryDy=0;exitX=0.5;exitY=0;exitDx=0;exitDy=0;" parent="1" source="1LA3e58lkjp87awg-dF5-12" target="1LA3e58lkjp87awg-dF5-1" edge="1">
          <mxGeometry width="50" height="50" relative="1" as="geometry">
            <mxPoint x="90" y="1040" as="sourcePoint" />
            <mxPoint x="140" y="990" as="targetPoint" />
          </mxGeometry>
        </mxCell>
        <mxCell id="1LA3e58lkjp87awg-dF5-14" value="" style="endArrow=none;html=1;rounded=0;exitX=1;exitY=0;exitDx=0;exitDy=0;entryX=0;entryY=0.5;entryDx=0;entryDy=0;" parent="1" source="1LA3e58lkjp87awg-dF5-1" target="1LA3e58lkjp87awg-dF5-2" edge="1">
          <mxGeometry width="50" height="50" relative="1" as="geometry">
            <mxPoint x="90" y="1040" as="sourcePoint" />
            <mxPoint x="140" y="990" as="targetPoint" />
          </mxGeometry>
        </mxCell>
        <mxCell id="1LA3e58lkjp87awg-dF5-15" value="Has" style="rhombus;whiteSpace=wrap;html=1;" parent="1" vertex="1">
          <mxGeometry x="-280" y="960" width="80" height="80" as="geometry" />
        </mxCell>
        <mxCell id="1LA3e58lkjp87awg-dF5-16" value="m" style="text;html=1;align=center;verticalAlign=middle;resizable=0;points=[];autosize=1;strokeColor=none;fillColor=none;" parent="1" vertex="1">
          <mxGeometry x="-210" y="960" width="30" height="30" as="geometry" />
        </mxCell>
        <mxCell id="1LA3e58lkjp87awg-dF5-17" value="1" style="text;html=1;align=center;verticalAlign=middle;resizable=0;points=[];autosize=1;strokeColor=none;fillColor=none;" parent="1" vertex="1">
          <mxGeometry x="-300" y="960" width="30" height="30" as="geometry" />
        </mxCell>
        <mxCell id="1LA3e58lkjp87awg-dF5-18" value="" style="endArrow=none;html=1;rounded=0;entryX=0.347;entryY=0.991;entryDx=0;entryDy=0;entryPerimeter=0;exitX=0;exitY=0.5;exitDx=0;exitDy=0;" parent="1" source="1LA3e58lkjp87awg-dF5-15" target="NmfJupg0P8XV8mu7NY6x-1" edge="1">
          <mxGeometry width="50" height="50" relative="1" as="geometry">
            <mxPoint x="-400" y="1000" as="sourcePoint" />
            <mxPoint x="-480" y="330" as="targetPoint" />
            <Array as="points">
              <mxPoint x="-400" y="1000" />
              <mxPoint x="-400" y="800" />
              <mxPoint x="-530" y="800" />
            </Array>
          </mxGeometry>
        </mxCell>
        <mxCell id="1LA3e58lkjp87awg-dF5-19" value="" style="endArrow=none;html=1;rounded=0;exitX=1;exitY=0.5;exitDx=0;exitDy=0;entryX=0;entryY=0.5;entryDx=0;entryDy=0;" parent="1" source="1LA3e58lkjp87awg-dF5-15" target="1LA3e58lkjp87awg-dF5-1" edge="1">
          <mxGeometry width="50" height="50" relative="1" as="geometry">
            <mxPoint x="-70" y="1000" as="sourcePoint" />
            <mxPoint x="-20" y="950" as="targetPoint" />
            <Array as="points">
              <mxPoint x="-120" y="1000" />
              <mxPoint x="-120" y="1100" />
            </Array>
          </mxGeometry>
        </mxCell>
        <mxCell id="uRlwzGUHbbHWgA5cBIWR-46" style="edgeStyle=orthogonalEdgeStyle;shape=connector;curved=0;rounded=0;orthogonalLoop=1;jettySize=auto;html=1;exitX=0;exitY=0.75;exitDx=0;exitDy=0;entryX=1;entryY=0.5;entryDx=0;entryDy=0;strokeColor=default;align=center;verticalAlign=middle;fontFamily=Helvetica;fontSize=11;fontColor=default;labelBackgroundColor=default;endArrow=none;endFill=0;" parent="1" source="18eJAe48b1krm5ogqkCA-1" target="uRlwzGUHbbHWgA5cBIWR-45" edge="1">
          <mxGeometry relative="1" as="geometry">
            <Array as="points">
              <mxPoint x="270" y="1110" />
              <mxPoint x="270" y="1370" />
            </Array>
          </mxGeometry>
        </mxCell>
        <mxCell id="18eJAe48b1krm5ogqkCA-1" value="Trainer" style="whiteSpace=wrap;html=1;align=center;" parent="1" vertex="1">
          <mxGeometry x="465" y="1080" width="100" height="40" as="geometry" />
        </mxCell>
        <mxCell id="18eJAe48b1krm5ogqkCA-2" value="TraPass" style="ellipse;whiteSpace=wrap;html=1;align=center;" parent="1" vertex="1">
          <mxGeometry x="630" y="1030" width="100" height="40" as="geometry" />
        </mxCell>
        <mxCell id="18eJAe48b1krm5ogqkCA-3" value="TraEmail" style="ellipse;whiteSpace=wrap;html=1;align=center;" parent="1" vertex="1">
          <mxGeometry x="640" y="1090" width="100" height="40" as="geometry" />
        </mxCell>
        <mxCell id="18eJAe48b1krm5ogqkCA-4" value="" style="endArrow=none;html=1;rounded=0;entryX=0;entryY=0.5;entryDx=0;entryDy=0;exitX=1;exitY=0.5;exitDx=0;exitDy=0;" parent="1" source="18eJAe48b1krm5ogqkCA-1" target="18eJAe48b1krm5ogqkCA-3" edge="1">
          <mxGeometry width="50" height="50" relative="1" as="geometry">
            <mxPoint x="550" y="1090" as="sourcePoint" />
            <mxPoint x="655" y="1064" as="targetPoint" />
          </mxGeometry>
        </mxCell>
        <mxCell id="18eJAe48b1krm5ogqkCA-5" value="TraFName" style="ellipse;whiteSpace=wrap;html=1;align=center;" parent="1" vertex="1">
          <mxGeometry x="490" y="1180" width="100" height="40" as="geometry" />
        </mxCell>
        <mxCell id="18eJAe48b1krm5ogqkCA-6" value="TraLName" style="ellipse;whiteSpace=wrap;html=1;align=center;" parent="1" vertex="1">
          <mxGeometry x="600" y="1160" width="100" height="40" as="geometry" />
        </mxCell>
        <mxCell id="18eJAe48b1krm5ogqkCA-7" value="" style="endArrow=none;html=1;rounded=0;exitX=0.75;exitY=1;exitDx=0;exitDy=0;entryX=0;entryY=0;entryDx=0;entryDy=0;" parent="1" source="18eJAe48b1krm5ogqkCA-1" target="18eJAe48b1krm5ogqkCA-6" edge="1">
          <mxGeometry width="50" height="50" relative="1" as="geometry">
            <mxPoint x="590" y="1040" as="sourcePoint" />
            <mxPoint x="640" y="990" as="targetPoint" />
          </mxGeometry>
        </mxCell>
        <mxCell id="18eJAe48b1krm5ogqkCA-8" value="" style="endArrow=none;html=1;rounded=0;entryX=0.5;entryY=1;entryDx=0;entryDy=0;exitX=0.5;exitY=0;exitDx=0;exitDy=0;" parent="1" source="18eJAe48b1krm5ogqkCA-5" target="18eJAe48b1krm5ogqkCA-1" edge="1">
          <mxGeometry width="50" height="50" relative="1" as="geometry">
            <mxPoint x="590" y="1040" as="sourcePoint" />
            <mxPoint x="640" y="990" as="targetPoint" />
          </mxGeometry>
        </mxCell>
        <mxCell id="18eJAe48b1krm5ogqkCA-10" value="" style="endArrow=none;html=1;rounded=0;entryX=0.25;entryY=1;entryDx=0;entryDy=0;exitX=0.5;exitY=0;exitDx=0;exitDy=0;" parent="1" source="18eJAe48b1krm5ogqkCA-14" target="18eJAe48b1krm5ogqkCA-1" edge="1">
          <mxGeometry width="50" height="50" relative="1" as="geometry">
            <mxPoint x="430" y="1160" as="sourcePoint" />
            <mxPoint x="640" y="990" as="targetPoint" />
          </mxGeometry>
        </mxCell>
        <mxCell id="18eJAe48b1krm5ogqkCA-11" value="" style="endArrow=none;html=1;rounded=0;exitX=1;exitY=0;exitDx=0;exitDy=0;entryX=0;entryY=0.5;entryDx=0;entryDy=0;" parent="1" source="18eJAe48b1krm5ogqkCA-1" target="18eJAe48b1krm5ogqkCA-2" edge="1">
          <mxGeometry width="50" height="50" relative="1" as="geometry">
            <mxPoint x="590" y="1040" as="sourcePoint" />
            <mxPoint x="640" y="990" as="targetPoint" />
          </mxGeometry>
        </mxCell>
        <mxCell id="18eJAe48b1krm5ogqkCA-14" value="TrainerID" style="ellipse;whiteSpace=wrap;html=1;align=center;fontStyle=4;" parent="1" vertex="1">
          <mxGeometry x="365" y="1160" width="100" height="40" as="geometry" />
        </mxCell>
        <mxCell id="uRlwzGUHbbHWgA5cBIWR-44" style="edgeStyle=orthogonalEdgeStyle;shape=connector;curved=0;rounded=0;orthogonalLoop=1;jettySize=auto;html=1;exitX=0.5;exitY=1;exitDx=0;exitDy=0;entryX=0;entryY=0.5;entryDx=0;entryDy=0;strokeColor=default;align=center;verticalAlign=middle;fontFamily=Helvetica;fontSize=11;fontColor=default;labelBackgroundColor=default;endArrow=none;endFill=0;" parent="1" source="18eJAe48b1krm5ogqkCA-18" target="uRlwzGUHbbHWgA5cBIWR-42" edge="1">
          <mxGeometry relative="1" as="geometry" />
        </mxCell>
        <mxCell id="uRlwzGUHbbHWgA5cBIWR-47" style="edgeStyle=orthogonalEdgeStyle;shape=connector;curved=0;rounded=0;orthogonalLoop=1;jettySize=auto;html=1;exitX=0.25;exitY=1;exitDx=0;exitDy=0;entryX=0;entryY=0.5;entryDx=0;entryDy=0;strokeColor=default;align=center;verticalAlign=middle;fontFamily=Helvetica;fontSize=11;fontColor=default;labelBackgroundColor=default;endArrow=none;endFill=0;" parent="1" source="18eJAe48b1krm5ogqkCA-18" target="uRlwzGUHbbHWgA5cBIWR-45" edge="1">
          <mxGeometry relative="1" as="geometry" />
        </mxCell>
        <mxCell id="uRlwzGUHbbHWgA5cBIWR-49" style="edgeStyle=orthogonalEdgeStyle;shape=connector;curved=0;rounded=0;orthogonalLoop=1;jettySize=auto;html=1;exitX=0.75;exitY=1;exitDx=0;exitDy=0;entryX=0;entryY=0.5;entryDx=0;entryDy=0;strokeColor=default;align=center;verticalAlign=middle;fontFamily=Helvetica;fontSize=11;fontColor=default;labelBackgroundColor=default;endArrow=none;endFill=0;" parent="1" source="18eJAe48b1krm5ogqkCA-18" target="uRlwzGUHbbHWgA5cBIWR-48" edge="1">
          <mxGeometry relative="1" as="geometry" />
        </mxCell>
        <mxCell id="18eJAe48b1krm5ogqkCA-18" value="Document" style="whiteSpace=wrap;html=1;align=center;" parent="1" vertex="1">
          <mxGeometry x="-1350" y="250" width="100" height="40" as="geometry" />
        </mxCell>
        <mxCell id="18eJAe48b1krm5ogqkCA-19" value="DocID" style="ellipse;whiteSpace=wrap;html=1;align=center;fontStyle=4;" parent="1" vertex="1">
          <mxGeometry x="-1600" y="220" width="100" height="40" as="geometry" />
        </mxCell>
        <mxCell id="18eJAe48b1krm5ogqkCA-23" value="DocStatus" style="ellipse;whiteSpace=wrap;html=1;align=center;" parent="1" vertex="1">
          <mxGeometry x="-1170" y="140" width="100" height="40" as="geometry" />
        </mxCell>
        <mxCell id="18eJAe48b1krm5ogqkCA-24" value="DocApproved" style="ellipse;whiteSpace=wrap;html=1;align=center;" parent="1" vertex="1">
          <mxGeometry x="-1270" y="110" width="100" height="40" as="geometry" />
        </mxCell>
        <mxCell id="18eJAe48b1krm5ogqkCA-25" value="DocDate" style="ellipse;whiteSpace=wrap;html=1;align=center;" parent="1" vertex="1">
          <mxGeometry x="-1390" y="100" width="100" height="40" as="geometry" />
        </mxCell>
        <mxCell id="18eJAe48b1krm5ogqkCA-26" value="DocPath" style="ellipse;whiteSpace=wrap;html=1;align=center;" parent="1" vertex="1">
          <mxGeometry x="-1500" y="120" width="100" height="40" as="geometry" />
        </mxCell>
        <mxCell id="18eJAe48b1krm5ogqkCA-27" value="DocName" style="ellipse;whiteSpace=wrap;html=1;align=center;" parent="1" vertex="1">
          <mxGeometry x="-1580" y="160" width="100" height="40" as="geometry" />
        </mxCell>
        <mxCell id="18eJAe48b1krm5ogqkCA-34" value="" style="endArrow=none;html=1;rounded=0;entryX=0;entryY=0.5;entryDx=0;entryDy=0;exitX=1;exitY=0;exitDx=0;exitDy=0;" parent="1" source="18eJAe48b1krm5ogqkCA-18" target="18eJAe48b1krm5ogqkCA-23" edge="1">
          <mxGeometry width="50" height="50" relative="1" as="geometry">
            <mxPoint x="-1200" y="320" as="sourcePoint" />
            <mxPoint x="-1150" y="270" as="targetPoint" />
          </mxGeometry>
        </mxCell>
        <mxCell id="18eJAe48b1krm5ogqkCA-35" value="" style="endArrow=none;html=1;rounded=0;entryX=0;entryY=1;entryDx=0;entryDy=0;exitX=0.75;exitY=0;exitDx=0;exitDy=0;" parent="1" source="18eJAe48b1krm5ogqkCA-18" target="18eJAe48b1krm5ogqkCA-24" edge="1">
          <mxGeometry width="50" height="50" relative="1" as="geometry">
            <mxPoint x="-1200" y="320" as="sourcePoint" />
            <mxPoint x="-1150" y="270" as="targetPoint" />
          </mxGeometry>
        </mxCell>
        <mxCell id="18eJAe48b1krm5ogqkCA-36" value="" style="endArrow=none;html=1;rounded=0;entryX=0.5;entryY=1;entryDx=0;entryDy=0;exitX=0.5;exitY=0;exitDx=0;exitDy=0;" parent="1" source="18eJAe48b1krm5ogqkCA-18" target="18eJAe48b1krm5ogqkCA-25" edge="1">
          <mxGeometry width="50" height="50" relative="1" as="geometry">
            <mxPoint x="-1200" y="320" as="sourcePoint" />
            <mxPoint x="-1150" y="270" as="targetPoint" />
          </mxGeometry>
        </mxCell>
        <mxCell id="18eJAe48b1krm5ogqkCA-37" value="" style="endArrow=none;html=1;rounded=0;entryX=1;entryY=1;entryDx=0;entryDy=0;exitX=0.25;exitY=0;exitDx=0;exitDy=0;" parent="1" source="18eJAe48b1krm5ogqkCA-18" target="18eJAe48b1krm5ogqkCA-26" edge="1">
          <mxGeometry width="50" height="50" relative="1" as="geometry">
            <mxPoint x="-1200" y="320" as="sourcePoint" />
            <mxPoint x="-1150" y="270" as="targetPoint" />
          </mxGeometry>
        </mxCell>
        <mxCell id="18eJAe48b1krm5ogqkCA-38" value="" style="endArrow=none;html=1;rounded=0;exitX=0;exitY=0;exitDx=0;exitDy=0;entryX=1;entryY=1;entryDx=0;entryDy=0;" parent="1" source="18eJAe48b1krm5ogqkCA-18" target="18eJAe48b1krm5ogqkCA-27" edge="1">
          <mxGeometry width="50" height="50" relative="1" as="geometry">
            <mxPoint x="-1360" y="230" as="sourcePoint" />
            <mxPoint x="-1310" y="180" as="targetPoint" />
          </mxGeometry>
        </mxCell>
        <mxCell id="18eJAe48b1krm5ogqkCA-39" value="" style="endArrow=none;html=1;rounded=0;exitX=1;exitY=0.5;exitDx=0;exitDy=0;" parent="1" source="18eJAe48b1krm5ogqkCA-19" edge="1">
          <mxGeometry width="50" height="50" relative="1" as="geometry">
            <mxPoint x="-1410" y="240" as="sourcePoint" />
            <mxPoint x="-1350" y="270" as="targetPoint" />
          </mxGeometry>
        </mxCell>
        <mxCell id="uRlwzGUHbbHWgA5cBIWR-2" value="" style="endArrow=none;html=1;rounded=0;exitX=0.75;exitY=1;exitDx=0;exitDy=0;entryX=0.5;entryY=0;entryDx=0;entryDy=0;" parent="1" source="NmfJupg0P8XV8mu7NY6x-65" target="uRlwzGUHbbHWgA5cBIWR-3" edge="1">
          <mxGeometry width="50" height="50" relative="1" as="geometry">
            <mxPoint x="380" y="820" as="sourcePoint" />
            <mxPoint x="500" y="920" as="targetPoint" />
            <Array as="points">
              <mxPoint x="425" y="800" />
              <mxPoint x="515" y="800" />
            </Array>
          </mxGeometry>
        </mxCell>
        <mxCell id="uRlwzGUHbbHWgA5cBIWR-3" value="Add" style="rhombus;whiteSpace=wrap;html=1;" parent="1" vertex="1">
          <mxGeometry x="475" y="920" width="80" height="80" as="geometry" />
        </mxCell>
        <mxCell id="uRlwzGUHbbHWgA5cBIWR-6" value="" style="endArrow=none;html=1;rounded=0;entryX=0.5;entryY=1;entryDx=0;entryDy=0;exitX=0.5;exitY=0;exitDx=0;exitDy=0;" parent="1" source="18eJAe48b1krm5ogqkCA-1" target="uRlwzGUHbbHWgA5cBIWR-3" edge="1">
          <mxGeometry width="50" height="50" relative="1" as="geometry">
            <mxPoint x="380" y="1040" as="sourcePoint" />
            <mxPoint x="430" y="990" as="targetPoint" />
          </mxGeometry>
        </mxCell>
        <mxCell id="uRlwzGUHbbHWgA5cBIWR-31" value="1" style="text;html=1;align=center;verticalAlign=middle;resizable=0;points=[];autosize=1;strokeColor=none;fillColor=none;fontFamily=Helvetica;fontSize=11;fontColor=default;labelBackgroundColor=default;" parent="1" vertex="1">
          <mxGeometry x="-530" y="950" width="30" height="30" as="geometry" />
        </mxCell>
        <mxCell id="uRlwzGUHbbHWgA5cBIWR-33" value="1" style="text;html=1;align=center;verticalAlign=middle;resizable=0;points=[];autosize=1;strokeColor=none;fillColor=none;fontFamily=Helvetica;fontSize=11;fontColor=default;labelBackgroundColor=default;" parent="1" vertex="1">
          <mxGeometry x="-540" y="910" width="30" height="30" as="geometry" />
        </mxCell>
        <mxCell id="uRlwzGUHbbHWgA5cBIWR-39" value="" style="endArrow=none;html=1;rounded=0;entryX=0;entryY=1;entryDx=0;entryDy=0;exitX=0.5;exitY=0;exitDx=0;exitDy=0;" parent="1" source="uRlwzGUHbbHWgA5cBIWR-40" target="NmfJupg0P8XV8mu7NY6x-133" edge="1">
          <mxGeometry width="50" height="50" relative="1" as="geometry">
            <mxPoint x="-650" y="1010" as="sourcePoint" />
            <mxPoint x="-610" y="1000" as="targetPoint" />
          </mxGeometry>
        </mxCell>
        <mxCell id="uRlwzGUHbbHWgA5cBIWR-40" value="&lt;u&gt;AssignId&lt;/u&gt;" style="ellipse;whiteSpace=wrap;html=1;align=center;" parent="1" vertex="1">
          <mxGeometry x="-710" y="1010" width="100" height="40" as="geometry" />
        </mxCell>
        <mxCell id="uRlwzGUHbbHWgA5cBIWR-42" value="Review" style="rhombus;whiteSpace=wrap;html=1;" parent="1" vertex="1">
          <mxGeometry x="-1020" y="1060" width="80" height="80" as="geometry" />
        </mxCell>
        <mxCell id="uRlwzGUHbbHWgA5cBIWR-45" value="review" style="rhombus;whiteSpace=wrap;html=1;" parent="1" vertex="1">
          <mxGeometry x="-35" y="1330" width="80" height="80" as="geometry" />
        </mxCell>
        <mxCell id="uRlwzGUHbbHWgA5cBIWR-50" style="edgeStyle=orthogonalEdgeStyle;shape=connector;curved=0;rounded=0;orthogonalLoop=1;jettySize=auto;html=1;exitX=1;exitY=0.5;exitDx=0;exitDy=0;strokeColor=default;align=center;verticalAlign=middle;fontFamily=Helvetica;fontSize=11;fontColor=default;labelBackgroundColor=default;endArrow=none;endFill=0;entryX=0.306;entryY=0.985;entryDx=0;entryDy=0;entryPerimeter=0;" parent="1" source="uRlwzGUHbbHWgA5cBIWR-48" target="NmfJupg0P8XV8mu7NY6x-1" edge="1">
          <mxGeometry relative="1" as="geometry">
            <mxPoint x="-610" y="300" as="targetPoint" />
          </mxGeometry>
        </mxCell>
        <mxCell id="uRlwzGUHbbHWgA5cBIWR-48" value="Uploads" style="rhombus;whiteSpace=wrap;html=1;" parent="1" vertex="1">
          <mxGeometry x="-950" y="490" width="80" height="80" as="geometry" />
        </mxCell>
        <mxCell id="uRlwzGUHbbHWgA5cBIWR-51" value="1" style="text;html=1;align=center;verticalAlign=middle;resizable=0;points=[];autosize=1;strokeColor=none;fillColor=none;fontFamily=Helvetica;fontSize=11;fontColor=default;labelBackgroundColor=default;" parent="1" vertex="1">
          <mxGeometry x="-865" y="498" width="30" height="30" as="geometry" />
        </mxCell>
        <mxCell id="uRlwzGUHbbHWgA5cBIWR-52" value="m" style="text;html=1;align=center;verticalAlign=middle;resizable=0;points=[];autosize=1;strokeColor=none;fillColor=none;fontFamily=Helvetica;fontSize=11;fontColor=default;labelBackgroundColor=default;" parent="1" vertex="1">
          <mxGeometry x="-970" y="498" width="30" height="30" as="geometry" />
        </mxCell>
        <mxCell id="uRlwzGUHbbHWgA5cBIWR-53" value="m" style="text;html=1;align=center;verticalAlign=middle;resizable=0;points=[];autosize=1;strokeColor=none;fillColor=none;fontFamily=Helvetica;fontSize=11;fontColor=default;labelBackgroundColor=default;" parent="1" vertex="1">
          <mxGeometry x="-1040" y="1070" width="30" height="30" as="geometry" />
        </mxCell>
        <mxCell id="uRlwzGUHbbHWgA5cBIWR-54" value="1" style="text;html=1;align=center;verticalAlign=middle;resizable=0;points=[];autosize=1;strokeColor=none;fillColor=none;fontFamily=Helvetica;fontSize=11;fontColor=default;labelBackgroundColor=default;" parent="1" vertex="1">
          <mxGeometry x="-950" y="1070" width="30" height="30" as="geometry" />
        </mxCell>
        <mxCell id="uRlwzGUHbbHWgA5cBIWR-55" value="m" style="text;html=1;align=center;verticalAlign=middle;resizable=0;points=[];autosize=1;strokeColor=none;fillColor=none;fontFamily=Helvetica;fontSize=11;fontColor=default;labelBackgroundColor=default;" parent="1" vertex="1">
          <mxGeometry x="-60" y="1340" width="30" height="30" as="geometry" />
        </mxCell>
        <mxCell id="uRlwzGUHbbHWgA5cBIWR-56" value="1" style="text;html=1;align=center;verticalAlign=middle;resizable=0;points=[];autosize=1;strokeColor=none;fillColor=none;fontFamily=Helvetica;fontSize=11;fontColor=default;labelBackgroundColor=default;" parent="1" vertex="1">
          <mxGeometry x="45" y="1340" width="30" height="30" as="geometry" />
        </mxCell>
        <mxCell id="uRlwzGUHbbHWgA5cBIWR-57" value="ApplyId" style="ellipse;whiteSpace=wrap;html=1;align=center;" parent="1" vertex="1">
          <mxGeometry x="-840" y="770" width="100" height="40" as="geometry" />
        </mxCell>
        <mxCell id="uRlwzGUHbbHWgA5cBIWR-58" value="" style="endArrow=none;html=1;rounded=0;entryX=0;entryY=1;entryDx=0;entryDy=0;exitX=0.5;exitY=0;exitDx=0;exitDy=0;" parent="1" edge="1">
          <mxGeometry width="50" height="50" relative="1" as="geometry">
            <mxPoint x="-790" y="770" as="sourcePoint" />
            <mxPoint x="-710" y="730" as="targetPoint" />
          </mxGeometry>
        </mxCell>
        <mxCell id="uRlwzGUHbbHWgA5cBIWR-59" value="ApplyDate" style="ellipse;whiteSpace=wrap;html=1;align=center;" parent="1" vertex="1">
          <mxGeometry x="-890" y="720" width="100" height="40" as="geometry" />
        </mxCell>
        <mxCell id="uRlwzGUHbbHWgA5cBIWR-60" value="" style="endArrow=none;html=1;rounded=0;entryX=0;entryY=0.5;entryDx=0;entryDy=0;exitX=0.999;exitY=0.385;exitDx=0;exitDy=0;exitPerimeter=0;" parent="1" source="uRlwzGUHbbHWgA5cBIWR-59" target="NmfJupg0P8XV8mu7NY6x-107" edge="1">
          <mxGeometry width="50" height="50" relative="1" as="geometry">
            <mxPoint x="-780" y="780" as="sourcePoint" />
            <mxPoint x="-700" y="740" as="targetPoint" />
          </mxGeometry>
        </mxCell>
        <mxCell id="uRlwzGUHbbHWgA5cBIWR-63" value="Status" style="ellipse;whiteSpace=wrap;html=1;align=center;" parent="1" vertex="1">
          <mxGeometry x="-740" y="790" width="100" height="40" as="geometry" />
        </mxCell>
        <mxCell id="uRlwzGUHbbHWgA5cBIWR-65" value="" style="endArrow=none;html=1;rounded=0;entryX=0;entryY=1;entryDx=0;entryDy=0;exitX=0.5;exitY=0;exitDx=0;exitDy=0;" parent="1" source="uRlwzGUHbbHWgA5cBIWR-63" edge="1">
          <mxGeometry width="50" height="50" relative="1" as="geometry">
            <mxPoint x="-770" y="790" as="sourcePoint" />
            <mxPoint x="-690" y="750" as="targetPoint" />
          </mxGeometry>
        </mxCell>
        <mxCell id="uRlwzGUHbbHWgA5cBIWR-67" value="&lt;u&gt;OppId&lt;/u&gt;" style="ellipse;whiteSpace=wrap;html=1;align=center;" parent="1" vertex="1">
          <mxGeometry x="-180" y="700" width="100" height="40" as="geometry" />
        </mxCell>
        <mxCell id="uRlwzGUHbbHWgA5cBIWR-68" value="OppDate" style="ellipse;whiteSpace=wrap;html=1;align=center;" parent="1" vertex="1">
          <mxGeometry x="-520" y="650" width="100" height="40" as="geometry" />
        </mxCell>
        <mxCell id="uRlwzGUHbbHWgA5cBIWR-70" value="" style="endArrow=none;html=1;rounded=0;entryX=1;entryY=0.5;entryDx=0;entryDy=0;exitX=0;exitY=0.25;exitDx=0;exitDy=0;" parent="1" source="NmfJupg0P8XV8mu7NY6x-93" target="uRlwzGUHbbHWgA5cBIWR-68" edge="1">
          <mxGeometry width="50" height="50" relative="1" as="geometry">
            <mxPoint x="-360" y="700" as="sourcePoint" />
            <mxPoint x="-420" y="650" as="targetPoint" />
          </mxGeometry>
        </mxCell>
        <mxCell id="uRlwzGUHbbHWgA5cBIWR-71" value="&lt;u&gt;CerId&lt;/u&gt;" style="ellipse;whiteSpace=wrap;html=1;align=center;" parent="1" vertex="1">
          <mxGeometry x="-20" y="130" width="100" height="40" as="geometry" />
        </mxCell>
        <mxCell id="uRlwzGUHbbHWgA5cBIWR-73" value="" style="endArrow=none;html=1;rounded=0;entryX=1;entryY=1;entryDx=0;entryDy=0;exitX=0.25;exitY=0;exitDx=0;exitDy=0;" parent="1" source="NmfJupg0P8XV8mu7NY6x-28" target="uRlwzGUHbbHWgA5cBIWR-71" edge="1">
          <mxGeometry width="50" height="50" relative="1" as="geometry">
            <mxPoint x="60" y="220" as="sourcePoint" />
            <mxPoint x="40" y="160" as="targetPoint" />
          </mxGeometry>
        </mxCell>
        <mxCell id="uRlwzGUHbbHWgA5cBIWR-74" value="&lt;u&gt;ProjId&lt;/u&gt;" style="ellipse;whiteSpace=wrap;html=1;align=center;" parent="1" vertex="1">
          <mxGeometry x="510" y="310" width="100" height="40" as="geometry" />
        </mxCell>
        <mxCell id="uRlwzGUHbbHWgA5cBIWR-75" value="" style="endArrow=none;html=1;rounded=0;entryX=0;entryY=1;entryDx=0;entryDy=0;exitX=1;exitY=0.25;exitDx=0;exitDy=0;" parent="1" source="NmfJupg0P8XV8mu7NY6x-55" target="uRlwzGUHbbHWgA5cBIWR-74" edge="1">
          <mxGeometry width="50" height="50" relative="1" as="geometry">
            <mxPoint x="435" y="370" as="sourcePoint" />
            <mxPoint x="445" y="314" as="targetPoint" />
          </mxGeometry>
        </mxCell>
        <mxCell id="uRlwzGUHbbHWgA5cBIWR-76" value="&lt;u&gt;ExpId&lt;/u&gt;" style="ellipse;whiteSpace=wrap;html=1;align=center;" parent="1" vertex="1">
          <mxGeometry x="60" y="990" width="100" height="40" as="geometry" />
        </mxCell>
        <mxCell id="uRlwzGUHbbHWgA5cBIWR-77" value="" style="endArrow=none;html=1;rounded=0;exitX=1;exitY=0;exitDx=0;exitDy=0;entryX=0;entryY=1;entryDx=0;entryDy=0;" parent="1" target="uRlwzGUHbbHWgA5cBIWR-76" edge="1">
          <mxGeometry width="50" height="50" relative="1" as="geometry">
            <mxPoint x="12.5" y="1080" as="sourcePoint" />
            <mxPoint x="77.5" y="1050" as="targetPoint" />
          </mxGeometry>
        </mxCell>
        <mxCell id="SVjdvZDn7MUK4XFZsArP-1" value="1" style="text;html=1;align=center;verticalAlign=middle;resizable=0;points=[];autosize=1;strokeColor=none;fillColor=none;" vertex="1" parent="1">
          <mxGeometry x="510" y="890" width="30" height="30" as="geometry" />
        </mxCell>
        <mxCell id="SVjdvZDn7MUK4XFZsArP-2" value="m" style="text;html=1;align=center;verticalAlign=middle;resizable=0;points=[];autosize=1;strokeColor=none;fillColor=none;" vertex="1" parent="1">
          <mxGeometry x="525" y="990" width="30" height="30" as="geometry" />
        </mxCell>
      </root>
    </mxGraphModel>
  </diagram>
</mxfile>
